<svg width="23" height="23" viewBox="0 0 23 23" fill="none" xmlns="http://www.w3.org/2000/svg">
<path fill-rule="evenodd" clip-rule="evenodd" d="M6.06189 1.5238C3.44512 1.5238 1.3238 3.64512 1.3238 6.2619V16.7381C1.3238 19.3549 3.44512 21.4762 6.06189 21.4762H16.5381C19.1549 21.4762 21.2762 19.3549 21.2762 16.7381V6.2619C21.2762 3.64512 19.1549 1.5238 16.5381 1.5238H6.06189ZM0.323799 6.2619C0.323799 3.09284 2.89283 0.523804 6.06189 0.523804H16.5381C19.7071 0.523804 22.2762 3.09284 22.2762 6.2619V16.7381C22.2762 19.9072 19.7071 22.4762 16.5381 22.4762H6.06189C2.89283 22.4762 0.323799 19.9072 0.323799 16.7381V6.2619ZM11.8866 7.80391C11.1188 7.69005 10.3346 7.82121 9.64559 8.17872C8.95658 8.53623 8.39784 9.1019 8.04885 9.79527C7.69986 10.4886 7.57839 11.2744 7.70171 12.0408C7.82503 12.8072 8.18687 13.5151 8.73575 14.064C9.28464 14.6129 9.99262 14.9748 10.759 15.0981C11.5254 15.2214 12.3111 15.0999 13.0045 14.7509C13.6979 14.4019 14.2636 13.8432 14.6211 13.1542C14.9786 12.4652 15.1097 11.681 14.9959 10.9131C14.8797 10.1299 14.5148 9.4048 13.9549 8.84491C13.395 8.28503 12.6699 7.92006 11.8866 7.80391ZM9.18502 7.2911C10.0607 6.83671 11.0574 6.67002 12.0333 6.81473C13.0288 6.96235 13.9504 7.42621 14.662 8.1378C15.3736 8.8494 15.8374 9.77099 15.9851 10.7665C16.1298 11.7424 15.9631 12.7391 15.5087 13.6148C15.0543 14.4905 14.3354 15.2006 13.4541 15.6442C12.5729 16.0877 11.5742 16.2421 10.6001 16.0854C9.62609 15.9286 8.72626 15.4688 8.02865 14.7711C7.33103 14.0735 6.87115 13.1737 6.71441 12.1996C6.55767 11.2256 6.71206 10.2269 7.15562 9.34568C7.59917 8.46443 8.30931 7.74549 9.18502 7.2911ZM17.0619 5.23809C16.7858 5.23809 16.5619 5.46195 16.5619 5.73809C16.5619 6.01423 16.7858 6.23809 17.0619 6.23809H17.0719C17.348 6.23809 17.5719 6.01423 17.5719 5.73809C17.5719 5.46195 17.348 5.23809 17.0719 5.23809H17.0619Z" 
fill="#079DED"/>
</svg>
