<svg width="23" height="23" viewBox="0 0 23 23" fill="none" xmlns="http://www.w3.org/2000/svg">
<path fill-rule="evenodd" clip-rule="evenodd" d="M1.34761 3.25005C1.34761 2.30912 2.10651 1.55005 3.03809 1.55005C3.96967 1.55005 4.72856 2.30912 4.72856 3.25005C4.72856 4.19098 3.96967 4.95005 3.03809 4.95005C2.10651 4.95005 1.34761 4.19098 1.34761 3.25005ZM3.03809 0.550049C1.55013 0.550049 0.34761 1.76093 0.34761 3.25005C0.34761 4.73917 1.55013 5.95005 3.03809 5.95005C4.52604 5.95005 5.72856 4.73917 5.72856 3.25005C5.72856 1.76093 4.52604 0.550049 3.03809 0.550049ZM16.1809 8.15005C14.5714 8.15005 13.0273 8.7922 11.8886 9.93593C10.7497 11.0797 10.1095 12.6315 10.1095 14.25V21.4501H13.4905V14.25C13.4905 13.5347 13.7734 12.8481 14.2777 12.3416C14.7821 11.835 15.4667 11.55 16.1809 11.55C16.8952 11.55 17.5798 11.835 18.0842 12.3416C18.5885 12.8481 18.8714 13.5347 18.8714 14.25V21.4501H22.2524V14.25C22.2524 12.6315 21.6122 11.0797 20.4733 9.93593C19.3345 8.7922 17.7905 8.15005 16.1809 8.15005ZM11.1799 9.23036C12.5059 7.89861 14.3048 7.15005 16.1809 7.15005C18.0571 7.15005 19.856 7.89861 21.182 9.23036C22.5079 10.562 23.2524 12.3677 23.2524 14.25V21.9501C23.2524 22.2262 23.0285 22.4501 22.7524 22.4501H18.3714C18.0953 22.4501 17.8714 22.2262 17.8714 21.9501V14.25C17.8714 13.7985 17.6928 13.3658 17.3755 13.0472C17.0583 12.7286 16.6286 12.55 16.1809 12.55C15.7333 12.55 15.3036 12.7286 14.9864 13.0472C14.6691 13.3658 14.4905 13.7985 14.4905 14.25V21.9501C14.4905 22.2262 14.2666 22.4501 13.9905 22.4501H9.60952C9.33337 22.4501 9.10952 22.2262 9.10952 21.9501V14.25C9.10952 12.3677 9.85401 10.562 11.1799 9.23036ZM0.34761 8.75005C0.34761 8.47391 0.571468 8.25005 0.84761 8.25005H5.22856C5.50471 8.25005 5.72856 8.47391 5.72856 8.75005V21.9501C5.72856 22.2262 5.50471 22.4501 5.22856 22.4501H0.84761C0.571468 22.4501 0.34761 22.2262 0.34761 21.9501V8.75005ZM1.34761 9.25005V21.4501H4.72856V9.25005H1.34761Z" 
fill="#079DED"/>
</svg>
