<svg width="32" height="23" viewBox="0 0 32 23" fill="none" xmlns="http://www.w3.org/2000/svg">
<g clip-path="url(#clip0_10_2146)">
<path d="M28.7133 5.63066C28.5621 5.0167 28.2542 4.45417 27.8207 3.99988C27.3872 3.54559 26.8434 3.21563 26.2443 3.04334C24.0553 2.5 15.2994 2.5 15.2994 2.5C15.2994 2.5 6.54352 2.5 4.35454 3.09508C3.75543 3.26738 3.21166 3.59734 2.77815 4.05163C2.34464 4.50591 2.03675 5.06845 1.88557 5.68241C1.48496 7.94056 1.289 10.2313 1.30015 12.5259C1.28587 14.8377 1.48185 17.1459 1.88557 19.4211C2.05224 20.016 2.36703 20.5571 2.79953 20.9922C3.23203 21.4273 3.76761 21.7417 4.35454 21.9049C6.54352 22.5 15.2994 22.5 15.2994 22.5C15.2994 22.5 24.0553 22.5 26.2443 21.9049C26.8434 21.7326 27.3872 21.4027 27.8207 20.9484C28.2542 20.4941 28.5621 19.9316 28.7133 19.3176C29.1108 17.0764 29.3067 14.8031 29.2987 12.5259C29.313 10.214 29.117 7.90582 28.7133 5.63066V5.63066Z"
 stroke="#079DED" stroke-linecap="round" stroke-linejoin="round"/>
<path d="M12.3 16.5L20.3 12.5L12.3 8.5V16.5Z" stroke="#079DED" stroke-linecap="round" stroke-linejoin="round"/>
</g>
<defs>
<clipPath id="clip0_10_2146">
<rect width="31" height="23" fill="#079DED" transform="translate(0.299988 0.5)"/>
</clipPath>
</defs>
</svg>
