<svg width="18" height="18" viewBox="0 0 18 18" fill="none" xmlns="http://www.w3.org/2000/svg">
<path d="M14.175 6.85687L16.3969 6.50812" stroke="#079DED" stroke-width="0.3"/>
<path d="M13.4803 4.81218L14.8697 3.99374" stroke="#079DED" stroke-width="0.3"/>
<path d="M12.0628 3.29906L12.9966 1.26843" stroke="#079DED" stroke-width="0.3"/>
<path d="M9.4078 3.00655L9.39655 1.39499" stroke="#079DED" stroke-width="0.3"/>
<path d="M6.83157 3.40031L6.08063 1.26843" stroke="#079DED" stroke-width="0.3"/>
<path d="M5.05971 4.7897L3.64502 4.01907" stroke="#079DED" stroke-width="0.3"/>
<path d="M4.43811 6.74158L2.25842 6.37314" stroke="#079DED" stroke-width="0.3"/>
<path d="M7.37439 12.7884C7.37439 11.3372 6.4772 10.1194 5.99345 9.21937C5.72469 8.71962 5.58363 8.16118 5.58282 7.59374C5.58282 5.68406 7.32939 4.13437 9.23907 4.13437" stroke="#079DED" stroke-width="0.3"/>
<path d="M11.1038 12.7884C11.1038 11.3372 12.0009 10.1194 12.4847 9.21937C12.7535 8.71962 12.8945 8.16118 12.8953 7.59374C12.8953 5.68406 11.1488 4.13437 9.23907 4.13437" stroke="#079DED" stroke-width="0.3"/>
<path d="M11.3737 12.7097H7.24219C6.91289 12.7097 6.64594 12.9766 6.64594 13.3059V13.3087C6.64594 13.638 6.91289 13.905 7.24219 13.905H11.3737C11.703 13.905 11.97 13.638 11.97 13.3087V13.3059C11.97 12.9766 11.703 12.7097 11.3737 12.7097Z" stroke="#079DED" stroke-width="0.3"/>
<path d="M11.0475 13.9022H7.56842C7.23912 13.9022 6.97217 14.1691 6.97217 14.4984V14.5013C6.97217 14.8306 7.23912 15.0975 7.56842 15.0975H11.0475C11.3768 15.0975 11.6437 14.8306 11.6437 14.5013V14.4984C11.6437 14.1691 11.3768 13.9022 11.0475 13.9022Z" stroke="#079DED" stroke-width="0.3"/>
<path d="M10.215 15.0975V15.3338C10.2249 15.4587 10.2088 15.5843 10.1677 15.7027C10.1267 15.8211 10.0616 15.9297 9.97652 16.0218C9.89146 16.1138 9.78828 16.1872 9.67347 16.2375C9.55866 16.2877 9.43469 16.3136 9.30938 16.3136C9.18406 16.3136 9.0601 16.2877 8.94529 16.2375C8.83048 16.1872 8.7273 16.1138 8.64224 16.0218C8.55718 15.9297 8.49209 15.8211 8.45104 15.7027C8.41 15.5843 8.3939 15.4587 8.40375 15.3338V15.0975" stroke="#079DED" stroke-width="0.3"/>
<path d="M6.91034 7.38282C6.92438 7.10593 6.99287 6.83453 7.11188 6.58414C7.23089 6.33375 7.3981 6.10927 7.60393 5.92355C7.80977 5.73783 8.0502 5.5945 8.31147 5.50177C8.57274 5.40904 8.84973 5.36873 9.12659 5.38313" stroke="#079DED" stroke-width="0.3"/>
</svg>
