<svg width="48" height="57" viewBox="0 0 48 57" fill="none" xmlns="http://www.w3.org/2000/svg">
<path d="M8.92909 12.0738C8.71229 12.0738 8.50136 11.9859 8.34901 11.8335C8.1955 11.68 8.1076 11.4691 8.1076 11.2535C8.1076 11.1996 8.11346 11.1457 8.12401 11.0929C8.13456 11.0402 8.15096 10.9886 8.17089 10.9394C8.19198 10.8902 8.21659 10.8421 8.24706 10.7976C8.27636 10.7531 8.31034 10.7109 8.34901 10.6734C8.38651 10.6359 8.4287 10.6007 8.47323 10.5714C8.51776 10.5421 8.56581 10.5164 8.61503 10.4953C8.66425 10.4753 8.71581 10.4601 8.76854 10.4496C8.87401 10.4273 8.983 10.4273 9.08846 10.4496C9.1412 10.4601 9.19276 10.4753 9.24198 10.4953C9.2912 10.5164 9.33925 10.5421 9.38378 10.5714C9.42831 10.6007 9.4705 10.6359 9.508 10.6734C9.54667 10.7109 9.58065 10.7531 9.60995 10.7976C9.64042 10.8421 9.66503 10.8902 9.68612 10.9394C9.70604 10.9886 9.72245 11.0402 9.733 11.0929C9.74354 11.1457 9.74823 11.1996 9.74823 11.2535C9.74823 11.4691 9.66151 11.68 9.508 11.8335C9.4705 11.871 9.42831 11.905 9.38378 11.9355C9.33925 11.9648 9.2912 11.9906 9.24198 12.0105C9.19276 12.0316 9.1412 12.0468 9.08846 12.0574C9.03573 12.0679 8.98182 12.0738 8.92909 12.0738Z" fill="#1677AC"/>
<path d="M46.1877 57H21.2853C20.8318 57 20.465 56.6332 20.465 56.1797V19.5504H8.92792C8.4744 19.5504 8.1076 19.1836 8.1076 18.7301V14.9684C8.1076 14.5149 8.4744 14.1481 8.92792 14.1481C9.38143 14.1481 9.74823 14.5149 9.74823 14.9684V17.9098H21.2853C21.7389 17.9098 22.1057 18.2766 22.1057 18.7301V55.3594H45.3662V45.6938C45.3662 45.2403 45.733 44.8735 46.1865 44.8735C46.64 44.8735 47.0068 45.2403 47.0068 45.6938V56.1797C47.008 56.6332 46.64 57 46.1877 57Z" fill="#1677AC"/>
<path d="M46.1877 43.9313C46.1338 43.9313 46.0799 43.9254 46.0271 43.9148C45.9744 43.9043 45.9228 43.8891 45.8736 43.868C45.8244 43.848 45.7764 43.8223 45.7318 43.793C45.6873 43.7625 45.6451 43.7285 45.6076 43.691C45.5689 43.6535 45.535 43.6113 45.5057 43.5656C45.4752 43.5211 45.4506 43.4742 45.4295 43.425C45.4096 43.3746 45.3932 43.323 45.3826 43.2715C45.3721 43.2188 45.3674 43.1648 45.3674 43.1109C45.3674 43.057 45.3721 43.0031 45.3826 42.9504C45.3932 42.8977 45.4096 42.8461 45.4295 42.7969C45.4506 42.7477 45.4752 42.6996 45.5057 42.6551C45.535 42.6105 45.5689 42.5684 45.6076 42.5309C45.6451 42.4922 45.6873 42.4582 45.7318 42.4289C45.7764 42.3996 45.8244 42.3738 45.8736 42.3527C45.9228 42.3328 45.9744 42.3164 46.0271 42.3059C46.1326 42.2848 46.2416 42.2848 46.3471 42.3059C46.3998 42.3164 46.4514 42.3328 46.5006 42.3527C46.5498 42.3738 46.5978 42.3996 46.6424 42.4289C46.6869 42.4582 46.7291 42.4922 46.7666 42.5309C46.8053 42.5684 46.8392 42.6105 46.8685 42.6551C46.899 42.6996 46.9236 42.7477 46.9447 42.7969C46.9646 42.8461 46.981 42.8977 46.9916 42.9504C47.0021 43.0031 47.0068 43.057 47.0068 43.1109C47.0068 43.1648 47.0021 43.2188 46.9916 43.2715C46.981 43.323 46.9646 43.3746 46.9447 43.425C46.9236 43.4742 46.899 43.5211 46.8685 43.5656C46.8392 43.6113 46.8053 43.6535 46.7666 43.691C46.7291 43.7285 46.6869 43.7625 46.6424 43.793C46.5978 43.8223 46.5498 43.848 46.5006 43.868C46.4514 43.8891 46.3998 43.9043 46.3471 43.9148C46.2943 43.9254 46.2404 43.9313 46.1877 43.9313Z" fill="#1677AC"/>
<path d="M46.1877 40.7895C45.7342 40.7895 45.3674 40.4227 45.3674 39.9691V1.80469H9.74823V8.69297C9.74823 9.14648 9.38143 9.51328 8.92792 9.51328C8.4744 9.51328 8.1076 9.14648 8.1076 8.69297V0.984375C8.1076 0.530859 8.4744 0.164062 8.92792 0.164062H46.1865C46.64 0.164062 47.0068 0.530859 47.0068 0.984375V39.9691C47.008 40.4227 46.64 40.7895 46.1877 40.7895Z" fill="#1677AC"/>
<path d="M9.47048 29.4187H5.99939C5.54587 29.4187 5.17908 29.0519 5.17908 28.5984V25.1273C5.17908 24.6738 5.54587 24.307 5.99939 24.307H9.47048C9.924 24.307 10.2908 24.6738 10.2908 25.1273V28.5984C10.2908 29.0519 9.924 29.4187 9.47048 29.4187ZM6.8197 27.7781H8.65017V25.9476H6.8197V27.7781Z" fill="#079DED"/>
<path d="M17.1005 29.4187H13.6295C13.1759 29.4187 12.8091 29.0519 12.8091 28.5984V25.1273C12.8091 24.6738 13.1759 24.307 13.6295 24.307H17.1005C17.5541 24.307 17.9209 24.6738 17.9209 25.1273V28.5984C17.9209 29.0519 17.5529 29.4187 17.1005 29.4187ZM14.4498 27.7781H16.2802V25.9476H14.4498V27.7781Z" fill="#079DED"/>
<path d="M9.47048 36.4805H5.99939C5.54587 36.4805 5.17908 36.1137 5.17908 35.6602V32.1891C5.17908 31.7356 5.54587 31.3688 5.99939 31.3688H9.47048C9.924 31.3688 10.2908 31.7356 10.2908 32.1891V35.6602C10.2908 36.1125 9.924 36.4805 9.47048 36.4805ZM6.8197 34.8399H8.65017V33.0094H6.8197V34.8399Z" fill="#079DED"/>
<path d="M17.1005 36.4805H13.6295C13.1759 36.4805 12.8091 36.1137 12.8091 35.6602V32.1891C12.8091 31.7356 13.1759 31.3688 13.6295 31.3688H17.1005C17.5541 31.3688 17.9209 31.7356 17.9209 32.1891V35.6602C17.9209 36.1125 17.5529 36.4805 17.1005 36.4805ZM14.4498 34.8399H16.2802V33.0094H14.4498V34.8399Z" fill="#079DED"/>
<path d="M9.47048 43.541H5.99939C5.54587 43.541 5.17908 43.1742 5.17908 42.7207V39.2496C5.17908 38.7961 5.54587 38.4293 5.99939 38.4293H9.47048C9.924 38.4293 10.2908 38.7961 10.2908 39.2496V42.7207C10.2908 43.1742 9.924 43.541 9.47048 43.541ZM6.8197 41.9004H8.65017V40.0699H6.8197V41.9004Z" fill="#079DED"/>
<path d="M17.1005 43.541H13.6295C13.1759 43.541 12.8091 43.1742 12.8091 42.7207V39.2496C12.8091 38.7961 13.1759 38.4293 13.6295 38.4293H17.1005C17.5541 38.4293 17.9209 38.7961 17.9209 39.2496V42.7207C17.9209 43.1742 17.5529 43.541 17.1005 43.541ZM14.4498 41.9004H16.2802V40.0699H14.4498V41.9004Z" fill="#079DED"/>
<path d="M9.47048 50.6027H5.99939C5.54587 50.6027 5.17908 50.2359 5.17908 49.7824V46.3113C5.17908 45.8578 5.54587 45.491 5.99939 45.491H9.47048C9.924 45.491 10.2908 45.8578 10.2908 46.3113V49.7824C10.2908 50.2347 9.924 50.6027 9.47048 50.6027ZM6.8197 48.9621H8.65017V47.1316H6.8197V48.9621Z" fill="#079DED"/>
<path d="M17.1005 50.6027H13.6295C13.1759 50.6027 12.8091 50.2359 12.8091 49.7824V46.3113C12.8091 45.8578 13.1759 45.491 13.6295 45.491H17.1005C17.5541 45.491 17.9209 45.8578 17.9209 46.3113V49.7824C17.9209 50.2347 17.5529 50.6027 17.1005 50.6027ZM14.4498 48.9621H16.2802V47.1316H14.4498V48.9621Z" fill="#079DED"/>
<path d="M30.1072 37.0313H26.7557C26.3022 37.0313 25.9354 36.6645 25.9354 36.2109V32.8594C25.9354 32.4059 26.3022 32.0391 26.7557 32.0391H30.1072C30.5608 32.0391 30.9275 32.4059 30.9275 32.8594V36.2109C30.9275 36.6645 30.5596 37.0313 30.1072 37.0313ZM27.576 35.3906H29.2869V33.6797H27.576V35.3906Z" fill="#1677AC"/>
<path d="M30.1072 44.7305H26.7557C26.3022 44.7305 25.9354 44.3637 25.9354 43.9102V40.5586C25.9354 40.1051 26.3022 39.7383 26.7557 39.7383H30.1072C30.5608 39.7383 30.9275 40.1051 30.9275 40.5586V43.9102C30.9275 44.3637 30.5596 44.7305 30.1072 44.7305ZM27.576 43.0898H29.2869V41.3789H27.576V43.0898Z" fill="#1677AC"/>
<path d="M30.1072 52.4297H26.7557C26.3022 52.4297 25.9354 52.0629 25.9354 51.6094V48.2578C25.9354 47.8043 26.3022 47.4375 26.7557 47.4375H30.1072C30.5608 47.4375 30.9275 47.8043 30.9275 48.2578V51.6094C30.9275 52.0617 30.5596 52.4297 30.1072 52.4297ZM27.576 50.7891H29.2869V49.0781H27.576V50.7891Z" fill="#1677AC"/>
<path d="M17.1861 8.56528H13.7256C13.2721 8.56528 12.9053 8.19849 12.9053 7.74497V4.28442C12.9053 3.83091 13.2721 3.46411 13.7256 3.46411H17.1861C17.6396 3.46411 18.0064 3.83091 18.0064 4.28442V7.74497C18.0064 8.19849 17.6396 8.56528 17.1861 8.56528ZM14.5459 6.92466H16.3658V5.10474H14.5459V6.92466Z" fill="#079DED"/>
<path d="M25.4209 8.56528H21.9603C21.5068 8.56528 21.14 8.19849 21.14 7.74497V4.28442C21.14 3.83091 21.5068 3.46411 21.9603 3.46411H25.4209C25.8744 3.46411 26.2412 3.83091 26.2412 4.28442V7.74497C26.2412 8.19849 25.8744 8.56528 25.4209 8.56528ZM22.7806 6.92466H24.6006V5.10474H22.7806V6.92466Z" fill="#079DED"/>
<path d="M33.6545 8.56528H30.194C29.7405 8.56528 29.3737 8.19849 29.3737 7.74497V4.28442C29.3737 3.83091 29.7405 3.46411 30.194 3.46411H33.6545C34.108 3.46411 34.4748 3.83091 34.4748 4.28442V7.74497C34.4748 8.19849 34.108 8.56528 33.6545 8.56528ZM31.0143 6.92466H32.8342V5.10474H31.0143V6.92466Z" fill="#079DED"/>
<path d="M42.4319 8.56528H38.9713C38.5178 8.56528 38.151 8.19849 38.151 7.74497V4.28442C38.151 3.83091 38.5178 3.46411 38.9713 3.46411H42.4319C42.8854 3.46411 43.2522 3.83091 43.2522 4.28442V7.74497C43.2522 8.19849 42.8842 8.56528 42.4319 8.56528ZM39.7916 6.92466H41.6115V5.10474H39.7916V6.92466Z" fill="#079DED"/>
<path d="M17.1861 15.7887H13.7256C13.2721 15.7887 12.9053 15.4219 12.9053 14.9684V11.5078C12.9053 11.0543 13.2721 10.6875 13.7256 10.6875H17.1861C17.6396 10.6875 18.0064 11.0543 18.0064 11.5078V14.9684C18.0064 15.4219 17.6396 15.7887 17.1861 15.7887ZM14.5459 14.148H16.3658V12.3281H14.5459V14.148Z" fill="#1677AC"/>
<path d="M25.4209 15.7887H21.9603C21.5068 15.7887 21.14 15.4219 21.14 14.9684V11.5078C21.14 11.0543 21.5068 10.6875 21.9603 10.6875H25.4209C25.8744 10.6875 26.2412 11.0543 26.2412 11.5078V14.9684C26.2412 15.4219 25.8744 15.7887 25.4209 15.7887ZM22.7806 14.148H24.6006V12.3281H22.7806V14.148Z" fill="#1677AC"/>
<path d="M33.6545 15.7887H30.194C29.7405 15.7887 29.3737 15.4219 29.3737 14.9684V11.5078C29.3737 11.0543 29.7405 10.6875 30.194 10.6875H33.6545C34.108 10.6875 34.4748 11.0543 34.4748 11.5078V14.9684C34.4748 15.4219 34.108 15.7887 33.6545 15.7887ZM31.0143 14.148H32.8342V12.3281H31.0143V14.148Z" fill="#1677AC"/>
<path d="M42.4319 15.7887H38.9713C38.5178 15.7887 38.151 15.4219 38.151 14.9684V11.5078C38.151 11.0543 38.5178 10.6875 38.9713 10.6875H42.4319C42.8854 10.6875 43.2522 11.0543 43.2522 11.5078V14.9684C43.2522 15.4219 42.8842 15.7887 42.4319 15.7887ZM39.7916 14.148H41.6115V12.3281H39.7916V14.148Z" fill="#1677AC"/>
<path d="M25.4197 23.0121H24.1377C23.6842 23.0121 23.3174 22.6453 23.3174 22.1918C23.3174 21.7383 23.6842 21.3715 24.1377 21.3715H24.5994V19.5504H24.0475C23.594 19.5504 23.2272 19.1836 23.2272 18.7301C23.2272 18.2766 23.594 17.9098 24.0475 17.9098H25.4197C25.8733 17.9098 26.2401 18.2766 26.2401 18.7301V22.1918C26.2401 22.6453 25.8733 23.0121 25.4197 23.0121Z" fill="#1677AC"/>
<path d="M33.6545 23.0121H30.194C29.7405 23.0121 29.3737 22.6453 29.3737 22.1917V18.7312C29.3737 18.2777 29.7405 17.9109 30.194 17.9109H33.6545C34.108 17.9109 34.4748 18.2777 34.4748 18.7312V22.1917C34.4748 22.6441 34.108 23.0121 33.6545 23.0121ZM31.0143 21.3714H32.8342V19.5515H31.0143V21.3714Z" fill="#1677AC"/>
<path d="M42.4319 23.0121H38.9713C38.5178 23.0121 38.151 22.6453 38.151 22.1917V18.7312C38.151 18.2777 38.5178 17.9109 38.9713 17.9109H42.4319C42.8854 17.9109 43.2522 18.2777 43.2522 18.7312V22.1917C43.2522 22.6441 42.8842 23.0121 42.4319 23.0121ZM39.7916 21.3714H41.6115V19.5515H39.7916V21.3714Z" fill="#1677AC"/>
<path d="M42.4319 30.2344H38.9713C38.5178 30.2344 38.151 29.8676 38.151 29.414V25.9535C38.151 25.5 38.5178 25.1332 38.9713 25.1332H42.4319C42.8854 25.1332 43.2522 25.5 43.2522 25.9535V29.414C43.2522 29.8676 42.8842 30.2344 42.4319 30.2344ZM39.7916 28.5937H41.6115V26.7738H39.7916V28.5937Z" fill="#1677AC"/>
<path d="M42.4319 37.4579H38.9713C38.5178 37.4579 38.151 37.0911 38.151 36.6375V33.177C38.151 32.7235 38.5178 32.3567 38.9713 32.3567H42.4319C42.8854 32.3567 43.2522 32.7235 43.2522 33.177V36.6375C43.2522 37.0911 42.8842 37.4579 42.4319 37.4579ZM39.7916 35.8172H41.6115V33.9973H39.7916V35.8172Z" fill="#1677AC"/>
<path d="M42.4319 44.6812H38.9713C38.5178 44.6812 38.151 44.3145 38.151 43.8609V40.4004C38.151 39.9469 38.5178 39.5801 38.9713 39.5801H42.4319C42.8854 39.5801 43.2522 39.9469 43.2522 40.4004V43.8609C43.2522 44.3133 42.8842 44.6812 42.4319 44.6812ZM39.7916 43.0406H41.6115V41.2207H39.7916V43.0406Z" fill="#1677AC"/>
<path d="M42.4319 51.9035H38.9713C38.5178 51.9035 38.151 51.5367 38.151 51.0832V47.6227C38.151 47.1692 38.5178 46.8024 38.9713 46.8024H42.4319C42.8854 46.8024 43.2522 47.1692 43.2522 47.6227V51.0832C43.2522 51.5367 42.8842 51.9035 42.4319 51.9035ZM39.7916 50.2629H41.6115V48.443H39.7916V50.2629Z" fill="#1677AC"/>
<path d="M35.5775 57H21.2853C20.8318 57 20.465 56.6332 20.465 56.1797V28.2891C20.465 27.8355 20.8318 27.4688 21.2853 27.4688H35.5764C36.0299 27.4688 36.3967 27.8355 36.3967 28.2891C36.3967 28.7426 36.0299 29.1094 35.5764 29.1094H22.1057V55.3594H34.756V31.7707C34.756 31.3172 35.1228 30.9504 35.5764 30.9504C36.0299 30.9504 36.3967 31.3172 36.3967 31.7707V56.1797C36.3978 56.6332 36.0299 57 35.5775 57Z" fill="#079DED"/>
<path d="M21.2854 57H1.81348C1.35996 57 0.993164 56.6332 0.993164 56.1797V18.7301C0.993164 18.2766 1.35996 17.9098 1.81348 17.9098H21.2854C21.7389 17.9098 22.1057 18.2766 22.1057 18.7301V56.1797C22.1057 56.6332 21.7389 57 21.2854 57ZM2.63379 55.3594H20.465V19.5504H2.63379V55.3594Z" fill="#1677AC"/>
</svg>
