<svg width="76" height="80" viewBox="0 0 76 80" fill="none" xmlns="http://www.w3.org/2000/svg">
<path d="M34.2963 72V40L3.9259 25.6L12.8148 22.4V19.2C12.8148 19.2 15.037 13.6 27.6296 17.6L32.0741 15.2V12C32.0741 12 37.2592 7.19997 47.6296 12V15.2L53.5555 18.4C53.5555 18.4 64.6666 16.8 63.9259 22.4L72.0741 26.4V57.6L34.2963 72Z" fill="#079DED"/>
<path d="M43.9259 27.2V33.6C43.9259 33.6 36.5185 38.4 28.3703 33.6V27.2C28.3703 27.2 38 32 43.9259 27.2ZM48.3703 20.8V27.2C48.3703 27.2 54.2963 32.8 63.9259 27.2V20.8C63.9259 20.8 56.5185 25.6 48.3703 20.8ZM32.0741 12.8V19.2C32.0741 19.2 40.2222 24.8 47.6296 18.4V12.8C47.6296 12.8 39.4815 17.6 32.0741 12.8ZM12.8148 19.2V25.6C12.8148 25.6 20.9629 31.2 28.3703 24.8V19.2C28.3703 19.2 20.2222 24 12.8148 19.2ZM3.9259 25.6V56.8L34.2963 72V40L3.9259 25.6Z" fill="#1677AC"/>
</svg>
