<svg width="60" height="60" viewBox="0 0 60 60" fill="none" xmlns="http://www.w3.org/2000/svg">
<path d="M47.0833 14.1883C47.0833 14.0721 47.0372 13.9606 46.955 13.8784C46.8728 13.7962 46.7613 13.75 46.645 13.75H45.8533C45.7371 13.75 45.6256 13.7962 45.5434 13.8784C45.4612 13.9606 45.415 14.0721 45.415 14.1883V33.3133C45.415 33.555 45.61 33.7517 45.8533 33.7517H46.645C46.7026 33.7517 46.7596 33.7403 46.8128 33.7183C46.8659 33.6963 46.9143 33.664 46.955 33.6233C46.9957 33.5826 47.0279 33.5343 47.05 33.4811C47.072 33.4279 47.0833 33.3709 47.0833 33.3133V14.1883Z" fill="#66757F"/>
<path d="M46.25 35.4167C47.6307 35.4167 48.75 34.2974 48.75 32.9167C48.75 31.536 47.6307 30.4167 46.25 30.4167C44.8693 30.4167 43.75 31.536 43.75 32.9167C43.75 34.2974 44.8693 35.4167 46.25 35.4167Z" fill="#079DED"/>
<path d="M46.25 38.75C47.1705 38.75 47.9167 38.0038 47.9167 37.0834C47.9167 36.1629 47.1705 35.4167 46.25 35.4167C45.3295 35.4167 44.5833 36.1629 44.5833 37.0834C44.5833 38.0038 45.3295 38.75 46.25 38.75Z" fill="#079DED"/>
<path d="M55.4167 13.75H48.535L16.5767 0.483354L16.5733 0.481687H16.5717C16.545 0.47002 16.5183 0.473354 16.4933 0.46502C16.415 0.441687 16.3367 0.416687 16.25 0.416687H16.2467C16.138 0.417409 16.0305 0.438907 15.93 0.48002C15.8561 0.515757 15.7876 0.561769 15.7267 0.616687C15.7067 0.631687 15.6833 0.64002 15.665 0.658354C15.5857 0.735867 15.5233 0.828922 15.4817 0.931687C15.475 0.946687 15.4767 0.966687 15.4717 0.981687L6.23666 13.9984C6.23166 14.005 6.23166 14.015 6.22666 14.0217C5.98299 14.1648 5.7804 14.3684 5.6385 14.6128C5.4966 14.8572 5.42018 15.1341 5.41666 15.4167V18.75C5.41666 19.192 5.59225 19.616 5.90481 19.9285C6.21737 20.2411 6.6413 20.4167 7.08332 20.4167H9.57499L3.38499 56.6667H0.416656V60H32.0133V56.6667H29.1133L22.925 20.4167H55.4167C55.8587 20.4167 56.2826 20.2411 56.5952 19.9285C56.9077 19.616 57.0833 19.192 57.0833 18.75V15.4167C57.0833 14.9747 56.9077 14.5507 56.5952 14.2382C56.2826 13.9256 55.8587 13.75 55.4167 13.75ZM19.135 20.4167L16.25 22.7317L13.3667 20.4167H19.135ZM16.25 35.5L22.3617 39.5067L16.25 42.84L10.1383 39.5067L16.25 35.5ZM10.185 36.6834L10.975 32.0434L14.085 34.0817L10.185 36.6834ZM18.415 34.0817L21.5317 32.04L22.3267 36.6884L18.415 34.0817ZM16.25 32.6384L11.5367 29.4967L16.25 25.6267L20.9633 29.4967L16.25 32.6384ZM11.9783 26.16L12.5817 22.615L14.4667 24.1617L11.9783 26.16ZM18.0333 24.1634L19.92 22.615L20.5267 26.165L18.0333 24.1634ZM8.45499 13.75L15.4167 3.93669V10.4167H12.0833C11.6413 10.4167 11.2174 10.5923 10.9048 10.9048C10.5923 11.2174 10.4167 11.6413 10.4167 12.0834V13.75H8.45499ZM9.33832 41.6467L13.8883 44.1284L8.40499 47.1184L9.33832 41.6467ZM25.7383 56.6667H6.77832L7.92166 49.96L16.25 45.4167L24.5933 49.9684L25.7383 56.6667ZM23.1717 41.6417L24.1083 47.1267L18.6117 44.1284L23.1717 41.6417ZM22.0833 13.75V12.0834C22.0833 11.6413 21.9077 11.2174 21.5952 10.9048C21.2826 10.5923 20.8587 10.4167 20.4167 10.4167H17.0833V2.49835L44.1883 13.75H22.0833ZM25.4167 18.75H23.4833V15.4167H25.4167V18.75ZM30.4167 18.75H27.0833V15.4167H30.4167V18.75ZM35.4167 18.75H32.0833V15.4167H35.4167V18.75ZM40.4167 18.75H37.0833V15.4167H40.4167V18.75ZM45.4167 18.75H42.0833V15.4167H45.4167V18.75ZM50.4167 18.75H47.0833V15.4167H50.4167V18.75ZM55.4167 17.9167C55.4167 18.1377 55.3289 18.3497 55.1726 18.5059C55.0163 18.6622 54.8043 18.75 54.5833 18.75H52.0833V15.4167H54.5833C54.8043 15.4167 55.0163 15.5045 55.1726 15.6608C55.3289 15.817 55.4167 16.029 55.4167 16.25V17.9167Z" fill="#1677AC"/>
<path d="M20.4167 12.0833H17.0833C16.6413 12.0833 16.2174 12.2589 15.9048 12.5715C15.5923 12.884 15.4167 13.308 15.4167 13.75V17.0833C15.4167 17.5253 15.5923 17.9493 15.9048 18.2618C16.2174 18.5744 16.6413 18.75 17.0833 18.75H22.0833V12.0833H20.4167Z" fill="#4B545D"/>
<path d="M18.75 12.0833H22.0833V18.75H18.75V12.0833Z" fill="#CDD7DF"/>
<path d="M58.0733 40V38.3333H34.4267V40H35.8333V44.115H34.4267V45.7816H58.0733V44.115H56.6667V40H58.0733Z" fill="#66757F"/>
</svg>
